<svg xmlns="http://www.w3.org/2000/svg" viewBox="0 0 835.52 316.23"><defs><style>.cls-1{isolation:isolate;}.cls-2{fill:#fff;}.cls-3{fill:#2f2fe0;}.cls-4{mix-blend-mode:darken;}.cls-5{fill:#ea1562;}</style></defs><g class="cls-1"><g id="Calque_2" data-name="Calque 2"><g id="Calque_1-2" data-name="Calque 1"><path class="cls-2" d="M199.58,255.9h0l-1.25.73v0L158,280.1a10.06,10.06,0,0,1-1.77.82l42.09-24.3Z"/><polygon class="cls-2" points="256.17 223.41 256.17 223.46 199.58 256.13 256.17 223.41"/><path class="cls-2" d="M199.58,255.9h0l-1.25.73v0L158,280.1a10.06,10.06,0,0,1-1.77.82l42.09-24.3Z"/><polygon class="cls-2" points="256.17 92.73 256.17 92.78 256.13 92.76 256.17 92.73"/><polygon class="cls-3" points="29.79 92.7 29.8 92.71 29.79 92.71 29.79 92.7"/><polygon class="cls-3" points="78.08 120.61 78.07 120.62 57.28 108.59 78.08 120.61"/><path class="cls-3" d="M198.33,256.62v.05L158,280.1a10.06,10.06,0,0,1-1.77.82Z"/><path class="cls-2" d="M199.58,255.9h0l-1.25.73L158,280.1a10.06,10.06,0,0,1-1.77.82l42.09-24.3Z"/><path class="cls-3" d="M199.58,256.13l56.59-32.67v-.05ZM256.13,92.76l0,0v0Zm-57.8,163.86-42.09,24.3a10.06,10.06,0,0,0,1.77-.82l40.32-23.43v0l1.25-.73h0Z"/><path class="cls-3" d="M263.46,62.58,165.48,6a45.14,45.14,0,0,0-45,0l-98,56.57a45.13,45.13,0,0,0-22.5,39V214.69a45.14,45.14,0,0,0,22.5,39l98,56.56a45.12,45.12,0,0,0,45,0l98-56.56a45.14,45.14,0,0,0,22.5-39V101.55A45.11,45.11,0,0,0,263.46,62.58ZM198.33,256.67,158,280.1a10,10,0,0,1-15-8.64V229.27a10,10,0,0,0-5-8.65L91.38,193.68a10,10,0,0,1-5-8.66V131.19a10,10,0,0,0-5-8.65l-3.32-1.92-20.79-12-12.51-7.22-.13-.08a10,10,0,0,1-1.76-15.83L80.74,63.6l5.94-3.43L135.48,32a15.06,15.06,0,0,1,15,0l98,56.57A15,15,0,0,1,253.93,94s0,0,0,0a15.05,15.05,0,0,1,2,7.49V214.69a15,15,0,0,1-7.5,13L199.58,255.9h0l-1.25.73Zm57.84-33.21-56.59,32.67,56.59-32.72Zm0-130.68,0,0,0,0Z"/><g class="cls-4"><ellipse class="cls-5" cx="199.58" cy="158.71" rx="29.14" ry="16.49" transform="translate(-47.22 222.8) rotate(-53.05)"/><polygon class="cls-5" points="221.5 222.87 177.66 248.18 194.62 178.91 204.34 173.3 221.5 222.87"/></g><path class="cls-3" d="M387.63,175v19.09H336.8V107.28h19.84V175Z"/><path class="cls-3" d="M453.73,132.08v62h-18.6v-5.82c-3.35,4.58-9.55,7.56-17.73,7.56-12.53,0-23.19-8.93-23.19-25.67V132.08h18.6v35.34c0,7.68,4.83,11.28,10.79,11.28,6.82,0,11.53-4,11.53-12.77V132.08Z"/><path class="cls-3" d="M560.36,156v38.06h-18.6V157.62c0-6.2-3-10.17-8.92-10.17-6.2,0-9.67,4.34-9.67,11.66v35h-18.6V157.62c0-6.2-3-10.17-8.93-10.17-6.2,0-9.67,4.34-9.67,11.66v35h-18.6v-62H486v5.7c2.85-4.21,8.3-7.44,16.61-7.44,7.32,0,12.77,3,16.25,8.19,3.47-5,9.17-8.19,18-8.19C551.06,130.34,560.36,140.51,560.36,156Z"/><path class="cls-3" d="M571.28,115.46a11.16,11.16,0,1,1,11.16,11.16A11.28,11.28,0,0,1,571.28,115.46Zm1.86,16.62h18.6v62h-18.6Z"/><path class="cls-3" d="M605.38,103.56H624v90.51h-18.6Z"/><path class="cls-3" d="M634.52,163.08a32.86,32.86,0,1,1,32.86,32.73A32.5,32.5,0,0,1,634.52,163.08Zm47.12,0c0-8.81-6.2-14.63-14.26-14.63s-14.26,5.82-14.26,14.63,6.2,14.63,14.26,14.63S681.64,171.88,681.64,163.08Z"/><path class="cls-3" d="M707.68,163.08c0-18.48,14-32.74,32.86-32.74,12,0,22.69,6.33,28,15.87l-16.24,9.43c-2.11-4.34-6.58-6.95-12-6.95-8.06,0-14,5.83-14,14.39s6,14.38,14,14.38c5.45,0,10-2.6,12-6.94l16.24,9.3c-5.33,9.67-15.87,16-28,16C721.69,195.81,707.68,181.55,707.68,163.08Z"/><path class="cls-3" d="M814.44,194.07l-19.84-27.4v27.4H776V107.28h18.6v51.95l18.6-27.15h21.7l-22.57,31,23.19,31Z"/></g></g></g></svg>